Coordinates
version=1
nRows=21
nColumns=22
inDegrees=yes

Units are S.I. units (second, meters, Newtons, ...)
If the header above contains a line with 'inDegrees', this indicates whether rotational values are in degrees (yes) or radians (no).

endheader
time	pelvis_tilt	pelvis_list	pelvis_rotation	pelvis_tx	pelvis_ty	pelvis_tz	hip_flexion_r	hip_adduction_r	hip_rotation_r	knee_angle_r	ankle_angle_r	subtalar_angle_r	hip_flexion_l	hip_adduction_l	hip_rotation_l	knee_angle_l	ankle_angle_l	subtalar_angle_l	lumbar_extension	lumbar_bending	lumbar_rotation
      4.27000000	     -4.14661490	      7.56891787	    -89.15608791	      0.30965106	      0.96463677	      1.03996812	      8.23540163	      7.39715946	      1.09981509	    -42.92962376	     13.86440689	      0.66792347	     35.54179055	     -3.23537292	     -0.57685788	    -27.96445201	      7.10537524	      3.10618271	      2.04392179	      4.30714377	      7.65895753
      4.28000000	     -3.71728639	      7.76693347	    -89.42496106	      0.31174000	      0.96558303	      1.04658994	      9.25233608	      6.58073256	      0.50595095	    -44.68037248	     12.94521841	      0.67659089	     35.13140148	     -2.82518806	     -1.01068872	    -27.76015897	      7.53169276	      2.91836516	      2.22877359	      3.82268572	      7.47804876
      4.29000000	     -3.28800596	      7.97285477	    -89.67800248	      0.31384031	      0.96648488	      1.05304596	     10.29007066	      5.73348235	     -0.10383201	    -46.32865592	     12.23941588	      0.47960526	     34.72991178	     -2.39701467	     -1.40683560	    -27.52149252	      7.94937940	      2.71437255	      2.42551593	      3.34894363	      7.27174302
      4.30000000	     -2.83123872	      8.09906005	    -89.89466277	      0.31600106	      0.96750475	      1.05939675	     11.23146015	      4.80890447	     -0.77056706	    -47.82254533	     11.82870200	      0.27601638	     34.23212928	     -1.91181655	     -1.76506251	    -27.22773197	      8.29165534	      2.63213176	      2.53124053	      2.84743194	      7.02779356
      4.31000000	     -2.38065462	      8.20540689	    -90.09685395	      0.31815362	      0.96852538	      1.06561653	     12.13607193	      3.86300885	     -1.43895459	    -49.13132006	     11.70112168	     -0.09498759	     33.71999592	     -1.41630157	     -2.08980479	    -26.91431555	      8.61513619	      2.53602148	      2.61481091	      2.35735661	      6.77724682
      4.32000000	     -1.94192161	      8.26688609	    -90.29315394	      0.32024047	      0.96960382	      1.07170978	     12.96638577	      2.92691623	     -2.06475320	    -50.21753663	     11.78815821	     -0.77574448	     33.16254783	     -0.92388284	     -2.38646803	    -26.57565343	      8.92962661	      2.40586948	      2.64525348	      1.88253957	      6.50552442
      4.33000000	     -1.54505598	      8.27950276	    -90.44803523	      0.32232877	      0.97076650	      1.07769558	     13.70061239	      2.01598467	     -2.71050138	    -51.04008022	     12.11324688	     -1.54314656	     32.55403847	     -0.44184460	     -2.60498829	    -26.20477994	      9.22098406	      2.30797824	      2.62139154	      1.45383453	      6.25082727
      4.34000000	     -1.19987934	      8.26370340	    -90.58045127	      0.32431503	      0.97197656	      1.08351990	     14.36586043	      1.18820473	     -3.28573299	    -51.60025272	     12.62974022	     -2.38864775	     31.93256542	     -0.00423127	     -2.79731333	    -25.83105227	      9.48232257	      2.21536768	      2.55650844	      1.08037113	      5.96763904
      4.35000000	     -0.92243322	      8.23156429	    -90.69269246	      0.32616638	      0.97321222	      1.08915644	     14.97874306	      0.47497780	     -3.78538823	    -51.90109210	     13.29560761	     -3.22913556	     31.31651180	      0.36789731	     -2.95811587	    -25.46580799	      9.72377788	      2.12626162	      2.46172235	      0.77389810	      5.70011981
      4.36000000	     -0.72598440	      8.19609092	    -90.78695932	      0.32783718	      0.97446379	      1.09459922	     15.54693669	     -0.07655397	     -4.16237016	    -51.93532725	     14.07612363	     -4.04635740	     30.71196024	      0.65558535	     -3.08848613	    -25.09578326	      9.96173659	      2.03205731	      2.35068156	      0.54820667	      5.42532298
      4.37000000	     -0.59857404	      8.18358758	    -90.85827851	      0.32934550	      0.97565961	      1.09979345	     16.11781896	     -0.47237588	     -4.41023361	    -51.74886067	     14.93564371	     -4.61988587	     30.15936872	      0.87456794	     -3.17340031	    -24.73980380	     10.16284577	      1.96219340	      2.25055455	      0.38969788	      5.14943583
      4.38000000	     -0.54170168	      8.16861606	    -90.92187047	      0.33065098	      0.97683340	      1.10477984	     16.65639588	     -0.70959550	     -4.54146568	    -51.34272375	     15.79203387	     -5.14558072	     29.62822010	      1.00585618	     -3.26397831	    -24.40038840	     10.37670499	      1.87055768	      2.13162484	      0.29508613	      4.90768217
      4.39000000	     -0.54995917	      8.17817454	    -90.96249255	      0.33179839	      0.97791496	      1.10953899	     17.19837082	     -0.79815281	     -4.56508293	    -50.75259146	     16.63837281	     -5.45886758	     29.15919865	      1.06327430	     -3.35269405	    -24.09624704	     10.59696962	      1.78545362	      2.02980095	      0.26183347	      4.67809284
      4.40000000	     -0.61095419	      8.22546307	    -90.99221624	      0.33277995	      0.97887750	      1.11405458	     17.76780575	     -0.75242772	     -4.46893053	    -50.01605760	     17.45062631	     -5.57672316	     28.75263950	      1.05964509	     -3.40671831	    -23.80244052	     10.80344281	      1.73600790	      1.95679842	      0.27635257	      4.46424568
      4.41000000	     -0.67088018	      8.27624923	    -91.00795877	      0.33366145	      0.97976276	      1.11838347	     18.32429718	     -0.65893351	     -4.29471994	    -49.15860094	     18.22384512	     -5.60365199	     28.36612131	      1.05544884	     -3.45410736	    -23.51317951	     10.98619561	      1.67430624	      1.88100091	      0.27994837	      4.24239037
      4.42000000	     -0.72902177	      8.27353123	    -91.00989111	      0.33447859	      0.98066238	      1.12260196	     18.80214997	     -0.54997708	     -4.09051635	    -48.20658404	     19.00788691	     -5.22626641	     27.92138671	      1.04832999	     -3.53982451	    -23.20168354	     11.17049649	      1.44449516	      1.74014479	      0.27374895	      4.02805716
      4.43000000	     -0.80130871	      8.32108749	    -90.98758889	      0.33525244	      0.98138661	      1.12664293	     19.31914522	     -0.41718096	     -3.88407558	    -47.18680881	     19.74774263	     -4.81218031	     27.56098456	      1.03216600	     -3.59827537	    -22.92144065	     11.34095226	      1.30146109	      1.65791153	      0.28297991	      3.80749964
      4.44000000	     -0.86492395	      8.35556549	    -90.94458270	      0.33602068	      0.98204437	      1.13058572	     19.80163304	     -0.31117094	     -3.71682048	    -46.11977079	     20.44433348	     -4.36806006	     27.20016914	      1.03071569	     -3.65991960	    -22.64897705	     11.50656923	      1.13820887	      1.56510765	      0.28359046	      3.57897101
      4.45000000	     -0.92080382	      8.38236432	    -90.88473133	      0.33679598	      0.98264194	      1.13445888	     20.25557078	     -0.24561662	     -3.62366494	    -45.02438272	     21.07630123	     -3.91205768	     26.83548798	      1.04715932	     -3.69707524	    -22.36973551	     11.64693226	      0.94022521	      1.47436296	      0.27832506	      3.37459149
      4.46000000	     -0.96636123	      8.39614764	    -90.80970587	      0.33758559	      0.98317704	      1.13827915	     20.67854205	     -0.23148224	     -3.62716731	    -43.92701174	     21.63804991	     -3.55283307	     26.47321028	      1.08138623	     -3.72457643	    -22.11078747	     11.78956489	      0.72140271	      1.37970050	      0.26910592	      3.16319415
      4.47000000	     -0.99742752	      8.43704206	    -90.74276569	      0.33835400	      0.98357755	      1.14202213	     21.12701464	     -0.26168663	     -3.70997267	    -42.85972461	     22.13494952	     -3.47131775	     26.16650908	      1.12593901	     -3.76048713	    -21.89265965	     11.93673292	      0.61370355	      1.32999504	      0.25227344	      2.99318461
